<mxfile host="app.diagrams.net" modified="2022-10-03T20:23:09.103Z" agent="5.0 (Windows NT 10.0; Win64; x64) AppleWebKit/537.36 (KHTML, like Gecko) Chrome/106.0.0.0 Safari/537.36" etag="LLscaai5rGovMY-sf_Yy" version="20.4.0" type="github">
  <diagram id="prtHgNgQTEPvFCAcTncT" name="Page-1">
    <mxGraphModel dx="1248" dy="592" grid="1" gridSize="10" guides="1" tooltips="1" connect="1" arrows="1" fold="1" page="1" pageScale="1" pageWidth="827" pageHeight="1169" math="0" shadow="0">
      <root>
        <mxCell id="0" />
        <mxCell id="1" parent="0" />
        <mxCell id="g3FacJts447bwH2BUUsu-43" value="" style="shape=process;whiteSpace=wrap;html=1;backgroundOutline=1;rounded=1;gradientColor=#E6E6E6;fillColor=#FFFFFF;strokeColor=default;" parent="1" vertex="1">
          <mxGeometry x="80" y="9" width="600" height="230" as="geometry" />
        </mxCell>
        <mxCell id="g3FacJts447bwH2BUUsu-56" value="" style="shape=process;whiteSpace=wrap;html=1;backgroundOutline=1;rounded=1;gradientColor=#CCCCCC;fillColor=#E6E6E6;strokeColor=default;" parent="1" vertex="1">
          <mxGeometry x="80" y="239" width="600" height="230" as="geometry" />
        </mxCell>
        <mxCell id="g3FacJts447bwH2BUUsu-67" value="" style="shape=process;whiteSpace=wrap;html=1;backgroundOutline=1;rounded=1;fillColor=#CCCCCC;gradientColor=#B3B3B3;strokeColor=default;" parent="1" vertex="1">
          <mxGeometry x="80" y="469" width="600" height="230" as="geometry" />
        </mxCell>
        <mxCell id="g3FacJts447bwH2BUUsu-77" value="" style="shape=process;whiteSpace=wrap;html=1;backgroundOutline=1;fillColor=#B3B3B3;strokeColor=default;rounded=1;gradientColor=#999999;" parent="1" vertex="1">
          <mxGeometry x="80" y="699" width="600" height="230" as="geometry" />
        </mxCell>
        <mxCell id="g3FacJts447bwH2BUUsu-108" value="" style="shape=process;whiteSpace=wrap;html=1;backgroundOutline=1;rounded=1;fillColor=#999999;gradientColor=#808080;strokeColor=default;" parent="1" vertex="1">
          <mxGeometry x="80" y="929" width="600" height="230" as="geometry" />
        </mxCell>
        <mxCell id="g3FacJts447bwH2BUUsu-58" value="&lt;font face=&quot;Luxurious Roman&quot; data-font-src=&quot;https://fonts.googleapis.com/css?family=Luxurious+Roman&quot; style=&quot;font-size: 14px;&quot;&gt;1 | 2&lt;/font&gt; PWR" style="rounded=1;whiteSpace=wrap;html=1;aspect=fixed;fillColor=#d0cee2;strokeColor=#56517e;rounded=1;fontColor=#56517E;fontFamily=Gentium Book Basic;fontSize=14;fontSource=https%3A%2F%2Ffonts.googleapis.com%2Fcss%3Ffamily%3DGentium%2BBook%2BBasic;fontStyle=0;verticalAlign=middle;" parent="1" vertex="1">
          <mxGeometry x="280" y="314" width="80" height="80" as="geometry" />
        </mxCell>
        <mxCell id="g3FacJts447bwH2BUUsu-45" value="" style="rounded=1;whiteSpace=wrap;html=1;aspect=fixed;fillColor=#d0cee2;strokeColor=#56517e;rounded=1;" parent="1" vertex="1">
          <mxGeometry x="280" y="84" width="80" height="80" as="geometry" />
        </mxCell>
        <mxCell id="g3FacJts447bwH2BUUsu-44" value="" style="rounded=1;whiteSpace=wrap;html=1;aspect=fixed;fillColor=#b0e3e6;strokeColor=#0e8088;rounded=1;" parent="1" vertex="1">
          <mxGeometry x="160" y="84" width="80" height="80" as="geometry" />
        </mxCell>
        <mxCell id="g3FacJts447bwH2BUUsu-46" value="" style="rounded=1;whiteSpace=wrap;html=1;aspect=fixed;fillColor=#bac8d3;strokeColor=#23445d;rounded=1;" parent="1" vertex="1">
          <mxGeometry x="520" y="84" width="80" height="80" as="geometry" />
        </mxCell>
        <mxCell id="g3FacJts447bwH2BUUsu-47" value="" style="rounded=1;whiteSpace=wrap;html=1;aspect=fixed;fillColor=#fad7ac;strokeColor=#b46504;rounded=1;" parent="1" vertex="1">
          <mxGeometry x="400" y="84" width="80" height="80" as="geometry" />
        </mxCell>
        <mxCell id="g3FacJts447bwH2BUUsu-57" value="&lt;font face=&quot;Luxurious Roman&quot;&gt;1&lt;/font&gt; PWR" style="rounded=1;whiteSpace=wrap;html=1;aspect=fixed;fillColor=#b0e3e6;strokeColor=#0e8088;rounded=1;fontColor=#0E8088;fontFamily=Gentium Book Basic;fontSize=14;fontSource=https%3A%2F%2Ffonts.googleapis.com%2Fcss%3Ffamily%3DGentium%2BBook%2BBasic;fontStyle=0;verticalAlign=middle;" parent="1" vertex="1">
          <mxGeometry x="160" y="314" width="80" height="80" as="geometry" />
        </mxCell>
        <mxCell id="g3FacJts447bwH2BUUsu-59" value="&lt;font face=&quot;Luxurious Roman&quot; data-font-src=&quot;https://fonts.googleapis.com/css?family=Luxurious+Roman&quot; style=&quot;font-size: 14px;&quot;&gt;1 | 2&lt;/font&gt;&amp;nbsp;PWR" style="rounded=1;whiteSpace=wrap;html=1;aspect=fixed;fillColor=#bac8d3;strokeColor=#23445d;rounded=1;fontColor=#23445D;fontFamily=Gentium Book Basic;fontSize=14;fontSource=https%3A%2F%2Ffonts.googleapis.com%2Fcss%3Ffamily%3DGentium%2BBook%2BBasic;fontStyle=0;verticalAlign=middle;" parent="1" vertex="1">
          <mxGeometry x="520" y="314" width="80" height="80" as="geometry" />
        </mxCell>
        <mxCell id="g3FacJts447bwH2BUUsu-60" value="&lt;font face=&quot;Luxurious Roman&quot; data-font-src=&quot;https://fonts.googleapis.com/css?family=Luxurious+Roman&quot; style=&quot;font-size: 14px;&quot;&gt;2&lt;/font&gt;&amp;nbsp;PWR" style="rounded=1;whiteSpace=wrap;html=1;aspect=fixed;fillColor=#fad7ac;strokeColor=#b46504;rounded=1;fontColor=#B46504;fontFamily=Gentium Book Basic;fontSize=14;fontSource=https%3A%2F%2Ffonts.googleapis.com%2Fcss%3Ffamily%3DGentium%2BBook%2BBasic;fontStyle=0;verticalAlign=middle;" parent="1" vertex="1">
          <mxGeometry x="400" y="314" width="80" height="80" as="geometry" />
        </mxCell>
        <mxCell id="xXZptcnk_brkqJqVmBfV-121" value="&lt;font style=&quot;font-size: 20px;&quot;&gt;IMPROVED DRAW/HAND&lt;br style=&quot;font-size: 20px;&quot;&gt;&lt;/font&gt;" style="text;html=1;strokeColor=none;fillColor=none;align=center;verticalAlign=middle;whiteSpace=wrap;horizontal=0;fontStyle=1;rounded=0;fontColor=#660033;fontFamily=Gentium Book Basic;fontSource=https%3A%2F%2Ffonts.googleapis.com%2Fcss%3Ffamily%3DGentium%2BBook%2BBasic;fontSize=20;" parent="1" vertex="1">
          <mxGeometry x="80" y="701" width="60" height="229" as="geometry" />
        </mxCell>
        <mxCell id="xXZptcnk_brkqJqVmBfV-132" value="&lt;font style=&quot;font-size: 22px;&quot;&gt;I&lt;/font&gt;" style="whiteSpace=wrap;html=1;aspect=fixed;labelBackgroundColor=none;labelBorderColor=none;fontSize=22;fontColor=#000000;fillColor=#FFFFFF;gradientColor=none;verticalAlign=middle;horizontal=0;fontFamily=Luxurious Roman;fontSource=https%3A%2F%2Ffonts.googleapis.com%2Fcss%3Ffamily%3DLuxurious%2BRoman;fontStyle=0" parent="1" vertex="1">
          <mxGeometry x="620" y="9" width="60" height="60" as="geometry" />
        </mxCell>
        <mxCell id="R0jju0OTF_589DZmGp97-9" value="&lt;font style=&quot;font-size: 20px&quot;&gt;IMPROVED SUMMONS&lt;br style=&quot;font-size: 20px&quot;&gt;&lt;/font&gt;" style="text;html=1;strokeColor=none;fillColor=none;align=center;verticalAlign=middle;whiteSpace=wrap;horizontal=0;fontStyle=1;rounded=0;fontColor=#660033;fontFamily=Gentium Book Basic;fontSource=https%3A%2F%2Ffonts.googleapis.com%2Fcss%3Ffamily%3DGentium%2BBook%2BBasic;fontSize=20;" parent="1" vertex="1">
          <mxGeometry x="80" y="240" width="60" height="230" as="geometry" />
        </mxCell>
        <mxCell id="ZHAniX2luiYQjnmn3kyG-10" value="&lt;font color=&quot;#b46504&quot; style=&quot;font-size: 15px&quot;&gt;+&lt;font face=&quot;Luxurious Roman&quot; data-font-src=&quot;https://fonts.googleapis.com/css?family=Luxurious+Roman&quot;&gt;1&lt;/font&gt; Monster&lt;/font&gt;" style="text;html=1;strokeColor=none;fillColor=none;align=center;verticalAlign=middle;whiteSpace=wrap;rounded=0;fontSize=15;spacingLeft=6;spacingRight=6;fontFamily=Gentium Book Basic;fontSource=https%3A%2F%2Ffonts.googleapis.com%2Fcss%3Ffamily%3DGentium%2BBook%2BBasic;fontStyle=1" parent="1" vertex="1">
          <mxGeometry x="395" y="854" width="90" height="20" as="geometry" />
        </mxCell>
        <mxCell id="ZHAniX2luiYQjnmn3kyG-14" value="&lt;font color=&quot;#660033&quot; style=&quot;font-size: 15px;&quot;&gt;While a Pawn is here, matching summons increase&lt;br&gt;* PWR values to _ PWR values in their favored zone.&lt;/font&gt;" style="text;html=1;strokeColor=none;fillColor=none;align=center;verticalAlign=middle;whiteSpace=wrap;rounded=0;fontSize=15;spacingLeft=3;spacingRight=3;fontFamily=Georgia;fontStyle=2;" parent="1" vertex="1">
          <mxGeometry x="140" y="430" width="480" height="30" as="geometry" />
        </mxCell>
        <mxCell id="ZHAniX2luiYQjnmn3kyG-29" value="&lt;font color=&quot;#660033&quot;&gt;While a Pawn is here, you gain the indicated benefit.&lt;/font&gt;" style="text;html=1;strokeColor=none;fillColor=none;align=center;verticalAlign=middle;whiteSpace=wrap;rounded=0;fontSize=15;spacingLeft=3;spacingRight=3;fontFamily=Georgia;fontStyle=2" parent="1" vertex="1">
          <mxGeometry x="140" y="890" width="480" height="30" as="geometry" />
        </mxCell>
        <mxCell id="oXEXAH-3kzme5YINiiaa-7" value="&lt;font style=&quot;font-size: 20px;&quot;&gt;IMPROVED MUTAGEN&lt;br style=&quot;font-size: 20px;&quot;&gt;&lt;/font&gt;" style="text;html=1;strokeColor=none;fillColor=none;align=center;verticalAlign=middle;whiteSpace=wrap;horizontal=0;fontStyle=1;rounded=0;fontColor=#660033;fontFamily=Gentium Book Basic;fontSource=https%3A%2F%2Ffonts.googleapis.com%2Fcss%3Ffamily%3DGentium%2BBook%2BBasic;fontSize=20;" parent="1" vertex="1">
          <mxGeometry x="80" y="470" width="60" height="230" as="geometry" />
        </mxCell>
        <mxCell id="oXEXAH-3kzme5YINiiaa-9" value="&lt;span&gt;&lt;font style=&quot;font-size: 36px&quot; face=&quot;Luxurious Roman&quot; data-font-src=&quot;https://fonts.googleapis.com/css?family=Luxurious+Roman&quot;&gt;&lt;b&gt;3&lt;/b&gt;&lt;/font&gt;&lt;br&gt;&lt;i&gt;points&lt;br&gt;per&lt;br&gt;Pawn&lt;/i&gt;&lt;br&gt;&lt;/span&gt;" style="text;html=1;strokeColor=none;fillColor=none;align=center;verticalAlign=middle;whiteSpace=wrap;rounded=0;fontSize=12;fontColor=#660033;labelBackgroundColor=none;fontFamily=Georgia;" parent="1" vertex="1">
          <mxGeometry x="620" y="469" width="60" height="230" as="geometry" />
        </mxCell>
        <mxCell id="oXEXAH-3kzme5YINiiaa-10" value="&lt;span&gt;&lt;font style=&quot;font-size: 36px&quot; face=&quot;Luxurious Roman&quot; data-font-src=&quot;https://fonts.googleapis.com/css?family=Luxurious+Roman&quot;&gt;&lt;b&gt;2&lt;/b&gt;&lt;/font&gt;&lt;br&gt;&lt;i&gt;points&lt;br&gt;per&lt;br&gt;Pawn&lt;/i&gt;&lt;br&gt;&lt;/span&gt;" style="text;html=1;strokeColor=none;fillColor=none;align=center;verticalAlign=middle;whiteSpace=wrap;rounded=0;fontSize=12;fontColor=#660033;labelBackgroundColor=none;fontFamily=Georgia;" parent="1" vertex="1">
          <mxGeometry x="620" y="239" width="60" height="230" as="geometry" />
        </mxCell>
        <mxCell id="oXEXAH-3kzme5YINiiaa-11" value="&lt;span&gt;&lt;span style=&quot;font-size: 36px&quot;&gt;&lt;b&gt;&lt;font face=&quot;Luxurious Roman&quot; data-font-src=&quot;https://fonts.googleapis.com/css?family=Luxurious+Roman&quot;&gt;4&lt;/font&gt;&lt;/b&gt;&lt;/span&gt;&lt;br&gt;&lt;i&gt;points&lt;br&gt;per&lt;br&gt;Pawn&lt;/i&gt;&lt;br&gt;&lt;/span&gt;" style="text;html=1;strokeColor=none;fillColor=none;align=center;verticalAlign=middle;whiteSpace=wrap;rounded=0;fontSize=12;fontColor=#660033;labelBackgroundColor=none;fontFamily=Georgia;" parent="1" vertex="1">
          <mxGeometry x="620" y="699" width="60" height="230" as="geometry" />
        </mxCell>
        <mxCell id="8KatNTizSnMYKGegr9bk-1" value="V" style="whiteSpace=wrap;html=1;aspect=fixed;labelBackgroundColor=none;labelBorderColor=none;fontSize=22;fontColor=#000000;fillColor=#999999;gradientColor=none;verticalAlign=middle;horizontal=0;fontFamily=Luxurious Roman;fontSource=https%3A%2F%2Ffonts.googleapis.com%2Fcss%3Ffamily%3DLuxurious%2BRoman;fontStyle=0" parent="1" vertex="1">
          <mxGeometry x="620" y="929" width="60" height="60" as="geometry" />
        </mxCell>
        <mxCell id="8KatNTizSnMYKGegr9bk-2" value="&lt;font style=&quot;font-size: 22px;&quot;&gt;II&lt;br style=&quot;font-size: 22px;&quot;&gt;&lt;/font&gt;" style="whiteSpace=wrap;html=1;aspect=fixed;labelBackgroundColor=none;labelBorderColor=none;fontSize=22;fontColor=#000000;fillColor=#E6E6E6;gradientColor=none;verticalAlign=middle;horizontal=0;fontFamily=Luxurious Roman;fontSource=https%3A%2F%2Ffonts.googleapis.com%2Fcss%3Ffamily%3DLuxurious%2BRoman;fontStyle=0" parent="1" vertex="1">
          <mxGeometry x="620" y="239" width="60" height="60" as="geometry" />
        </mxCell>
        <mxCell id="8KatNTizSnMYKGegr9bk-3" value="&lt;font style=&quot;font-size: 22px&quot;&gt;III&lt;br style=&quot;font-size: 22px&quot;&gt;&lt;/font&gt;" style="whiteSpace=wrap;html=1;aspect=fixed;labelBackgroundColor=none;labelBorderColor=none;fontSize=22;fontColor=#000000;fillColor=#CCCCCC;gradientColor=none;verticalAlign=middle;horizontal=0;fontFamily=Luxurious Roman;fontSource=https%3A%2F%2Ffonts.googleapis.com%2Fcss%3Ffamily%3DLuxurious%2BRoman;fontStyle=0" parent="1" vertex="1">
          <mxGeometry x="620" y="469" width="60" height="60" as="geometry" />
        </mxCell>
        <mxCell id="8KatNTizSnMYKGegr9bk-4" value="&lt;font style=&quot;font-size: 22px;&quot;&gt;&lt;font style=&quot;font-size: 22px;&quot;&gt;IV&lt;/font&gt;&lt;br style=&quot;font-size: 22px;&quot;&gt;&lt;/font&gt;" style="whiteSpace=wrap;html=1;aspect=fixed;labelBackgroundColor=none;labelBorderColor=none;fontSize=22;fontColor=#000000;fillColor=#B3B3B3;gradientColor=none;verticalAlign=middle;horizontal=0;fontFamily=Luxurious Roman;fontSource=https%3A%2F%2Ffonts.googleapis.com%2Fcss%3Ffamily%3DLuxurious%2BRoman;fontStyle=0" parent="1" vertex="1">
          <mxGeometry x="620" y="699" width="60" height="60" as="geometry" />
        </mxCell>
        <mxCell id="_O27XECYRmZ1K9vp6goM-3" value="&lt;span&gt;&lt;span style=&quot;font-size: 36px&quot;&gt;&lt;b&gt;&lt;font face=&quot;Luxurious Roman&quot; data-font-src=&quot;https://fonts.googleapis.com/css?family=Luxurious+Roman&quot;&gt;1&lt;/font&gt;&lt;/b&gt;&lt;/span&gt;&lt;br&gt;&lt;i&gt;point&lt;br&gt;per&lt;br&gt;Pawn&lt;/i&gt;&lt;br&gt;&lt;/span&gt;" style="text;html=1;strokeColor=none;fillColor=none;align=center;verticalAlign=middle;whiteSpace=wrap;rounded=0;fontSize=12;fontColor=#660033;labelBackgroundColor=none;fontFamily=Georgia;" vertex="1" parent="1">
          <mxGeometry x="620" y="9" width="60" height="230" as="geometry" />
        </mxCell>
        <mxCell id="_O27XECYRmZ1K9vp6goM-4" value="&lt;span style=&quot;font-size: 18px&quot;&gt;PROMOTE A &lt;span style=&quot;font-size: 18px;&quot;&gt;&lt;b&gt;SUMMON&lt;/b&gt;&lt;/span&gt;&amp;nbsp;OF &lt;b style=&quot;font-size: 18px&quot;&gt;MATCHING COLOR&lt;/b&gt;&amp;nbsp;HERE&lt;br style=&quot;font-size: 18px&quot;&gt;&lt;/span&gt;" style="text;html=1;strokeColor=none;fillColor=none;align=center;verticalAlign=middle;whiteSpace=wrap;rounded=1;fontFamily=Gentium Book Basic;fontStyle=0;fontSize=18;fontSource=https%3A%2F%2Ffonts.googleapis.com%2Fcss%3Ffamily%3DGentium%2BBook%2BBasic;" vertex="1" parent="1">
          <mxGeometry x="140" y="24" width="480" height="30" as="geometry" />
        </mxCell>
        <mxCell id="_O27XECYRmZ1K9vp6goM-5" value="&lt;span style=&quot;font-size: 18px&quot;&gt;PROMOTE A &lt;span style=&quot;font-size: 18px;&quot;&gt;&lt;b&gt;SUMMON&lt;/b&gt;&lt;/span&gt;&amp;nbsp;OF &lt;b style=&quot;font-size: 18px&quot;&gt;MATCHING COLOR&lt;/b&gt;&amp;nbsp;&amp;amp; &lt;b&gt;PWR&lt;/b&gt; HERE&lt;br style=&quot;font-size: 18px&quot;&gt;&lt;/span&gt;" style="text;html=1;strokeColor=none;fillColor=none;align=center;verticalAlign=middle;whiteSpace=wrap;rounded=1;fontFamily=Gentium Book Basic;fontStyle=0;fontSize=18;fontSource=https%3A%2F%2Ffonts.googleapis.com%2Fcss%3Ffamily%3DGentium%2BBook%2BBasic;" vertex="1" parent="1">
          <mxGeometry x="140" y="254" width="480" height="30" as="geometry" />
        </mxCell>
        <mxCell id="_O27XECYRmZ1K9vp6goM-7" value="&lt;span style=&quot;font-size: 18px&quot;&gt;PROMOTE A &lt;span style=&quot;font-size: 18px;&quot;&gt;&lt;b&gt;SUMMON&lt;/b&gt;&lt;/span&gt;&amp;nbsp;OF &lt;span style=&quot;font-size: 18px;&quot;&gt;&lt;b&gt;MATCHING COLOR&lt;/b&gt;&lt;/span&gt;&amp;nbsp;HERE&lt;br&gt;THERE MUST BE AT LEAST &lt;b&gt;2 PAWNS&lt;/b&gt; IN THE SAME COLUMN&lt;br style=&quot;font-size: 18px&quot;&gt;&lt;/span&gt;" style="text;html=1;strokeColor=none;fillColor=none;align=center;verticalAlign=middle;whiteSpace=wrap;rounded=1;fontFamily=Gentium Book Basic;fontStyle=0;fontSize=18;fontSource=https%3A%2F%2Ffonts.googleapis.com%2Fcss%3Ffamily%3DGentium%2BBook%2BBasic;" vertex="1" parent="1">
          <mxGeometry x="140" y="944" width="480" height="30" as="geometry" />
        </mxCell>
        <mxCell id="_O27XECYRmZ1K9vp6goM-10" value="1 PWR" style="rounded=1;whiteSpace=wrap;html=1;aspect=fixed;fillColor=#d0cee2;strokeColor=#56517e;rounded=1;fontColor=#56517E;fontFamily=Gentium Book Basic;fontSize=14;fontSource=https%3A%2F%2Ffonts.googleapis.com%2Fcss%3Ffamily%3DGentium%2BBook%2BBasic;fontStyle=0;verticalAlign=middle;" vertex="1" parent="1">
          <mxGeometry x="280" y="774" width="80" height="80" as="geometry" />
        </mxCell>
        <mxCell id="_O27XECYRmZ1K9vp6goM-11" value="3 PWR" style="rounded=1;whiteSpace=wrap;html=1;aspect=fixed;fillColor=#b0e3e6;strokeColor=#0e8088;rounded=1;fontColor=#0E8088;fontFamily=Gentium Book Basic;fontSize=14;fontSource=https%3A%2F%2Ffonts.googleapis.com%2Fcss%3Ffamily%3DGentium%2BBook%2BBasic;fontStyle=0;verticalAlign=middle;" vertex="1" parent="1">
          <mxGeometry x="160" y="774" width="80" height="80" as="geometry" />
        </mxCell>
        <mxCell id="_O27XECYRmZ1K9vp6goM-12" value="3 PWR" style="rounded=1;whiteSpace=wrap;html=1;aspect=fixed;fillColor=#bac8d3;strokeColor=#23445d;rounded=1;fontColor=#23445D;fontFamily=Gentium Book Basic;fontSize=14;fontSource=https%3A%2F%2Ffonts.googleapis.com%2Fcss%3Ffamily%3DGentium%2BBook%2BBasic;fontStyle=0;verticalAlign=middle;" vertex="1" parent="1">
          <mxGeometry x="520" y="774" width="80" height="80" as="geometry" />
        </mxCell>
        <mxCell id="_O27XECYRmZ1K9vp6goM-13" value="1 PWR" style="rounded=1;whiteSpace=wrap;html=1;aspect=fixed;fillColor=#fad7ac;strokeColor=#b46504;rounded=1;fontColor=#B46504;fontFamily=Gentium Book Basic;fontSize=14;fontSource=https%3A%2F%2Ffonts.googleapis.com%2Fcss%3Ffamily%3DGentium%2BBook%2BBasic;fontStyle=0;verticalAlign=middle;" vertex="1" parent="1">
          <mxGeometry x="400" y="774" width="80" height="80" as="geometry" />
        </mxCell>
        <mxCell id="_O27XECYRmZ1K9vp6goM-14" value="&lt;font color=&quot;#660033&quot; style=&quot;font-size: 15px;&quot;&gt;While a Pawn is here, the matching Mutagen Card is flipped.&lt;/font&gt;" style="text;html=1;strokeColor=none;fillColor=none;align=center;verticalAlign=middle;whiteSpace=wrap;rounded=0;fontSize=15;spacingLeft=3;spacingRight=3;fontFamily=Georgia;fontStyle=2;" vertex="1" parent="1">
          <mxGeometry x="140" y="660" width="480" height="30" as="geometry" />
        </mxCell>
        <mxCell id="_O27XECYRmZ1K9vp6goM-15" value="&lt;span&gt;&lt;span style=&quot;font-size: 36px&quot;&gt;&lt;b&gt;&lt;font face=&quot;Luxurious Roman&quot; data-font-src=&quot;https://fonts.googleapis.com/css?family=Luxurious+Roman&quot;&gt;0&lt;/font&gt;&lt;/b&gt;&lt;/span&gt;&lt;br&gt;&lt;i&gt;point&lt;br&gt;per&lt;br&gt;Pawn&lt;/i&gt;&lt;br&gt;&lt;/span&gt;" style="text;html=1;strokeColor=none;fillColor=none;align=center;verticalAlign=middle;whiteSpace=wrap;rounded=0;fontSize=12;fontColor=#660033;labelBackgroundColor=none;fontFamily=Georgia;" vertex="1" parent="1">
          <mxGeometry x="620" y="929" width="60" height="230" as="geometry" />
        </mxCell>
        <mxCell id="_O27XECYRmZ1K9vp6goM-16" value="&lt;font color=&quot;#660033&quot;&gt;Pawns in this position may no longer be removed.&lt;br&gt;When all Pawns are here, the Sorcerer wins.&lt;/font&gt;" style="text;html=1;strokeColor=none;fillColor=none;align=center;verticalAlign=middle;whiteSpace=wrap;rounded=0;fontSize=15;spacingLeft=3;spacingRight=3;fontFamily=Georgia;fontStyle=2" vertex="1" parent="1">
          <mxGeometry x="140" y="1120" width="480" height="30" as="geometry" />
        </mxCell>
        <mxCell id="_O27XECYRmZ1K9vp6goM-17" value="" style="rounded=1;whiteSpace=wrap;html=1;aspect=fixed;fillColor=#d0cee2;strokeColor=#56517e;rounded=1;" vertex="1" parent="1">
          <mxGeometry x="280" y="1004" width="80" height="80" as="geometry" />
        </mxCell>
        <mxCell id="_O27XECYRmZ1K9vp6goM-18" value="" style="rounded=1;whiteSpace=wrap;html=1;aspect=fixed;fillColor=#b0e3e6;strokeColor=#0e8088;rounded=1;" vertex="1" parent="1">
          <mxGeometry x="160" y="1004" width="80" height="80" as="geometry" />
        </mxCell>
        <mxCell id="_O27XECYRmZ1K9vp6goM-19" value="" style="rounded=1;whiteSpace=wrap;html=1;aspect=fixed;fillColor=#bac8d3;strokeColor=#23445d;rounded=1;" vertex="1" parent="1">
          <mxGeometry x="520" y="1004" width="80" height="80" as="geometry" />
        </mxCell>
        <mxCell id="_O27XECYRmZ1K9vp6goM-20" value="" style="rounded=1;whiteSpace=wrap;html=1;aspect=fixed;fillColor=#fad7ac;strokeColor=#b46504;rounded=1;" vertex="1" parent="1">
          <mxGeometry x="400" y="1004" width="80" height="80" as="geometry" />
        </mxCell>
        <mxCell id="_O27XECYRmZ1K9vp6goM-21" value="&lt;span style=&quot;font-size: 18px&quot;&gt;PROMOTE A &lt;span style=&quot;font-size: 18px;&quot;&gt;&lt;b&gt;SUMMON&lt;/b&gt;&lt;/span&gt;&amp;nbsp;OF &lt;b style=&quot;font-size: 18px&quot;&gt;MATCHING COLOR&lt;/b&gt;&amp;nbsp;&amp;amp; &lt;b&gt;PWR&lt;/b&gt; HERE&lt;br style=&quot;font-size: 18px&quot;&gt;&lt;/span&gt;" style="text;html=1;strokeColor=none;fillColor=none;align=center;verticalAlign=middle;whiteSpace=wrap;rounded=1;fontFamily=Gentium Book Basic;fontStyle=0;fontSize=18;fontSource=https%3A%2F%2Ffonts.googleapis.com%2Fcss%3Ffamily%3DGentium%2BBook%2BBasic;" vertex="1" parent="1">
          <mxGeometry x="140" y="714" width="480" height="30" as="geometry" />
        </mxCell>
        <mxCell id="_O27XECYRmZ1K9vp6goM-22" value="&lt;font style=&quot;font-size: 20px;&quot;&gt;SORCERER WINS&lt;br style=&quot;font-size: 20px;&quot;&gt;&lt;/font&gt;" style="text;html=1;strokeColor=none;fillColor=none;align=center;verticalAlign=middle;whiteSpace=wrap;horizontal=0;fontStyle=1;rounded=0;fontColor=#660033;fontFamily=Gentium Book Basic;fontSource=https%3A%2F%2Ffonts.googleapis.com%2Fcss%3Ffamily%3DGentium%2BBook%2BBasic;fontSize=20;" vertex="1" parent="1">
          <mxGeometry x="80" y="929" width="60" height="229" as="geometry" />
        </mxCell>
        <mxCell id="_O27XECYRmZ1K9vp6goM-23" value="&lt;font color=&quot;#56517e&quot;&gt;+&lt;font face=&quot;Luxurious Roman&quot; data-font-src=&quot;https://fonts.googleapis.com/css?family=Luxurious+Roman&quot;&gt;1&lt;/font&gt;&amp;nbsp;Spell&lt;/font&gt;" style="text;html=1;strokeColor=none;fillColor=none;align=center;verticalAlign=middle;whiteSpace=wrap;rounded=0;fontSize=15;spacingLeft=6;spacingRight=6;fontFamily=Gentium Book Basic;fontSource=https%3A%2F%2Ffonts.googleapis.com%2Fcss%3Ffamily%3DGentium%2BBook%2BBasic;fontStyle=1" vertex="1" parent="1">
          <mxGeometry x="275" y="854" width="90" height="20" as="geometry" />
        </mxCell>
        <mxCell id="_O27XECYRmZ1K9vp6goM-24" value="&lt;font color=&quot;#0e8088&quot;&gt;Draw +1&lt;/font&gt;" style="text;html=1;strokeColor=none;fillColor=none;align=center;verticalAlign=middle;whiteSpace=wrap;rounded=0;fontSize=15;spacingLeft=6;spacingRight=6;fontFamily=Gentium Book Basic;fontSource=https%3A%2F%2Ffonts.googleapis.com%2Fcss%3Ffamily%3DGentium%2BBook%2BBasic;fontStyle=1" vertex="1" parent="1">
          <mxGeometry x="155" y="759" width="90" height="16" as="geometry" />
        </mxCell>
        <mxCell id="_O27XECYRmZ1K9vp6goM-25" value="&lt;font color=&quot;#23445d&quot;&gt;&lt;font data-font-src=&quot;https://fonts.googleapis.com/css?family=Luxurious+Roman&quot;&gt;+&lt;/font&gt;&lt;font data-font-src=&quot;https://fonts.googleapis.com/css?family=Luxurious+Roman&quot; face=&quot;Luxurious Roman&quot;&gt;1 Trail&lt;/font&gt;&lt;/font&gt;" style="text;html=1;strokeColor=none;fillColor=none;align=center;verticalAlign=middle;whiteSpace=wrap;rounded=0;fontSize=15;spacingLeft=6;spacingRight=6;fontFamily=Gentium Book Basic;fontSource=https%3A%2F%2Ffonts.googleapis.com%2Fcss%3Ffamily%3DGentium%2BBook%2BBasic;fontStyle=1" vertex="1" parent="1">
          <mxGeometry x="515" y="854" width="90" height="20" as="geometry" />
        </mxCell>
        <mxCell id="_O27XECYRmZ1K9vp6goM-27" value="&lt;font color=&quot;#56517e&quot;&gt;Hand Size&lt;/font&gt;" style="text;html=1;strokeColor=none;fillColor=none;align=center;verticalAlign=middle;whiteSpace=wrap;rounded=0;fontSize=15;spacingLeft=6;spacingRight=6;fontFamily=Gentium Book Basic;fontSource=https%3A%2F%2Ffonts.googleapis.com%2Fcss%3Ffamily%3DGentium%2BBook%2BBasic;fontStyle=1" vertex="1" parent="1">
          <mxGeometry x="275" y="759" width="90" height="16" as="geometry" />
        </mxCell>
        <mxCell id="_O27XECYRmZ1K9vp6goM-28" value="&lt;font color=&quot;#b46504&quot;&gt;Hand Size&lt;/font&gt;" style="text;html=1;strokeColor=none;fillColor=none;align=center;verticalAlign=middle;whiteSpace=wrap;rounded=0;fontSize=15;spacingLeft=6;spacingRight=6;fontFamily=Gentium Book Basic;fontSource=https%3A%2F%2Ffonts.googleapis.com%2Fcss%3Ffamily%3DGentium%2BBook%2BBasic;fontStyle=1" vertex="1" parent="1">
          <mxGeometry x="395" y="759" width="90" height="16" as="geometry" />
        </mxCell>
        <mxCell id="_O27XECYRmZ1K9vp6goM-30" value="&lt;font color=&quot;#23445d&quot;&gt;Hand Size&lt;/font&gt;" style="text;html=1;strokeColor=none;fillColor=none;align=center;verticalAlign=middle;whiteSpace=wrap;rounded=0;fontSize=15;spacingLeft=6;spacingRight=6;fontFamily=Gentium Book Basic;fontSource=https%3A%2F%2Ffonts.googleapis.com%2Fcss%3Ffamily%3DGentium%2BBook%2BBasic;fontStyle=1" vertex="1" parent="1">
          <mxGeometry x="515" y="759" width="90" height="16" as="geometry" />
        </mxCell>
        <mxCell id="_O27XECYRmZ1K9vp6goM-32" value="&lt;font color=&quot;#0e8088&quot;&gt;Discard 1&lt;/font&gt;" style="text;html=1;strokeColor=none;fillColor=none;align=center;verticalAlign=middle;whiteSpace=wrap;rounded=0;fontSize=15;spacingLeft=6;spacingRight=6;fontFamily=Gentium Book Basic;fontSource=https%3A%2F%2Ffonts.googleapis.com%2Fcss%3Ffamily%3DGentium%2BBook%2BBasic;fontStyle=1" vertex="1" parent="1">
          <mxGeometry x="155" y="854" width="90" height="20" as="geometry" />
        </mxCell>
        <mxCell id="_O27XECYRmZ1K9vp6goM-33" value="&lt;font face=&quot;Luxurious Roman&quot; data-font-src=&quot;https://fonts.googleapis.com/css?family=Luxurious+Roman&quot; style=&quot;font-size: 14px;&quot;&gt;1 | 2&lt;/font&gt; PWR" style="rounded=1;whiteSpace=wrap;html=1;aspect=fixed;fillColor=#d0cee2;strokeColor=#56517e;rounded=1;fontColor=#56517E;fontFamily=Gentium Book Basic;fontSize=14;fontSource=https%3A%2F%2Ffonts.googleapis.com%2Fcss%3Ffamily%3DGentium%2BBook%2BBasic;fontStyle=0;verticalAlign=middle;" vertex="1" parent="1">
          <mxGeometry x="280" y="314" width="80" height="80" as="geometry" />
        </mxCell>
        <mxCell id="_O27XECYRmZ1K9vp6goM-34" value="&lt;font face=&quot;Luxurious Roman&quot;&gt;1&lt;/font&gt; PWR" style="rounded=1;whiteSpace=wrap;html=1;aspect=fixed;fillColor=#b0e3e6;strokeColor=#0e8088;rounded=1;fontColor=#0E8088;fontFamily=Gentium Book Basic;fontSize=14;fontSource=https%3A%2F%2Ffonts.googleapis.com%2Fcss%3Ffamily%3DGentium%2BBook%2BBasic;fontStyle=0;verticalAlign=middle;" vertex="1" parent="1">
          <mxGeometry x="160" y="314" width="80" height="80" as="geometry" />
        </mxCell>
        <mxCell id="_O27XECYRmZ1K9vp6goM-40" value="&lt;font face=&quot;Luxurious Roman&quot; data-font-src=&quot;https://fonts.googleapis.com/css?family=Luxurious+Roman&quot; style=&quot;font-size: 14px;&quot;&gt;3 | 4&lt;/font&gt;&amp;nbsp;PWR" style="rounded=1;whiteSpace=wrap;html=1;aspect=fixed;fillColor=#bac8d3;strokeColor=#23445d;rounded=1;fontColor=#23445D;fontFamily=Gentium Book Basic;fontSize=14;fontSource=https%3A%2F%2Ffonts.googleapis.com%2Fcss%3Ffamily%3DGentium%2BBook%2BBasic;fontStyle=0;verticalAlign=middle;" vertex="1" parent="1">
          <mxGeometry x="520" y="545" width="80" height="80" as="geometry" />
        </mxCell>
        <mxCell id="_O27XECYRmZ1K9vp6goM-41" value="&lt;font face=&quot;Luxurious Roman&quot; data-font-src=&quot;https://fonts.googleapis.com/css?family=Luxurious+Roman&quot; style=&quot;font-size: 14px;&quot;&gt;3&lt;/font&gt;&amp;nbsp;PWR" style="rounded=1;whiteSpace=wrap;html=1;aspect=fixed;fillColor=#fad7ac;strokeColor=#b46504;rounded=1;fontColor=#B46504;fontFamily=Gentium Book Basic;fontSize=14;fontSource=https%3A%2F%2Ffonts.googleapis.com%2Fcss%3Ffamily%3DGentium%2BBook%2BBasic;fontStyle=0;verticalAlign=middle;" vertex="1" parent="1">
          <mxGeometry x="400" y="545" width="80" height="80" as="geometry" />
        </mxCell>
        <mxCell id="_O27XECYRmZ1K9vp6goM-42" value="&lt;font face=&quot;Luxurious Roman&quot;&gt;3 PWR&lt;br&gt;&lt;/font&gt;" style="rounded=1;whiteSpace=wrap;html=1;aspect=fixed;fillColor=#d0cee2;strokeColor=#56517e;rounded=1;fontColor=#56517E;fontFamily=Gentium Book Basic;fontSize=14;fontSource=https%3A%2F%2Ffonts.googleapis.com%2Fcss%3Ffamily%3DGentium%2BBook%2BBasic;fontStyle=0;verticalAlign=middle;" vertex="1" parent="1">
          <mxGeometry x="280" y="545" width="80" height="80" as="geometry" />
        </mxCell>
        <mxCell id="_O27XECYRmZ1K9vp6goM-43" value="&lt;font face=&quot;Luxurious Roman&quot;&gt;2&lt;/font&gt;&amp;nbsp;PWR" style="rounded=1;whiteSpace=wrap;html=1;aspect=fixed;fillColor=#b0e3e6;strokeColor=#0e8088;rounded=1;fontColor=#0E8088;fontFamily=Gentium Book Basic;fontSize=14;fontSource=https%3A%2F%2Ffonts.googleapis.com%2Fcss%3Ffamily%3DGentium%2BBook%2BBasic;fontStyle=0;verticalAlign=middle;" vertex="1" parent="1">
          <mxGeometry x="160" y="545" width="80" height="80" as="geometry" />
        </mxCell>
        <mxCell id="_O27XECYRmZ1K9vp6goM-44" value="&lt;span style=&quot;font-size: 18px&quot;&gt;PROMOTE A &lt;span style=&quot;font-size: 18px;&quot;&gt;&lt;b&gt;SUMMON&lt;/b&gt;&lt;/span&gt;&amp;nbsp;OF &lt;b style=&quot;font-size: 18px&quot;&gt;MATCHING COLOR&lt;/b&gt;&amp;nbsp;&amp;amp; &lt;b&gt;PWR&lt;/b&gt; HERE&lt;br style=&quot;font-size: 18px&quot;&gt;&lt;/span&gt;" style="text;html=1;strokeColor=none;fillColor=none;align=center;verticalAlign=middle;whiteSpace=wrap;rounded=1;fontFamily=Gentium Book Basic;fontStyle=0;fontSize=18;fontSource=https%3A%2F%2Ffonts.googleapis.com%2Fcss%3Ffamily%3DGentium%2BBook%2BBasic;" vertex="1" parent="1">
          <mxGeometry x="140" y="484" width="480" height="30" as="geometry" />
        </mxCell>
      </root>
    </mxGraphModel>
  </diagram>
</mxfile>
